<svg width="16" height="16" viewBox="0 0 16 16" fill="none" xmlns="http://www.w3.org/2000/svg">
<g clip-path="url(#clip0_146_716)">
<path d="M6.66663 6.69113L5.33331 6.69112L5.33329 10.6911L9.33331 10.6911L9.3333 9.3578L7.60946 9.35777L11.1625 5.80474L10.2197 4.86193L6.66665 8.41496L6.66663 6.69113Z" fill="#FBFCFE"/>
<path fill-rule="evenodd" clip-rule="evenodd" d="M15.3333 8.00001C15.3333 12.0501 12.05 15.3333 7.99996 15.3333C3.94987 15.3333 0.666626 12.0501 0.666626 8.00001C0.666626 3.94992 3.94987 0.666672 7.99996 0.666672C12.05 0.666672 15.3333 3.94992 15.3333 8.00001ZM14 8.00001C14 11.3137 11.3137 14 7.99996 14C4.68625 14 1.99996 11.3137 1.99996 8.00001C1.99996 4.6863 4.68625 2.00001 7.99996 2.00001C11.3137 2.00001 14 4.6863 14 8.00001Z" fill="#FBFCFE"/>
</g>
<defs>
<clipPath id="clip0_146_716">
<rect width="16" height="16" fill="white"/>
</clipPath>
</defs>
</svg>
