<svg width="20" height="20" viewBox="0 0 20 20" fill="none" xmlns="http://www.w3.org/2000/svg">
<path d="M17.865 9.71836L10.2067 17.3767C9.26846 18.3149 7.99598 18.842 6.66916 18.842C5.34234 18.842 4.06987 18.3149 3.13166 17.3767C2.19346 16.4385 1.66638 15.166 1.66638 13.8392C1.66638 12.5124 2.19346 11.2399 3.13166 10.3017L10.79 2.64336C11.4155 2.01789 12.2638 1.6665 13.1483 1.6665C14.0329 1.6665 14.8812 2.01789 15.5067 2.64336C16.1321 3.26883 16.4835 4.11714 16.4835 5.00169C16.4835 5.88624 16.1321 6.73456 15.5067 7.36002L7.84 15.0184C7.68515 15.1732 7.50131 15.296 7.29899 15.3798C7.09667 15.4637 6.87982 15.5068 6.66083 15.5068C6.44184 15.5068 6.22499 15.4637 6.02267 15.3798C5.82035 15.296 5.63651 15.1732 5.48166 15.0184C5.32681 14.8635 5.20398 14.6797 5.12017 14.4774C5.03637 14.275 4.99324 14.0582 4.99324 13.8392C4.99324 13.6202 5.03637 13.4034 5.12017 13.201C5.20398 12.9987 5.32681 12.8149 5.48166 12.66L12.5567 5.59336" stroke="#4B4DED" stroke-width="1.5" stroke-linecap="round" stroke-linejoin="round"/>
</svg>
