<svg width="32" height="32" viewBox="0 0 32 32" fill="none" xmlns="http://www.w3.org/2000/svg">
<rect x="0.5" y="0.5" width="31" height="31" rx="15.5" stroke="#4B4DED"/>
<path d="M9.75 8.53125H22.25C22.5732 8.53125 22.8828 8.66011 23.1113 8.88867C23.3399 9.11723 23.4688 9.42677 23.4688 9.75V22.25C23.4688 22.5732 23.3399 22.8828 23.1113 23.1113C22.8828 23.3399 22.5732 23.4688 22.25 23.4688H9.75C9.42677 23.4688 9.11723 23.3399 8.88867 23.1113C8.66011 22.8828 8.53125 22.5732 8.53125 22.25V9.75C8.53125 9.42677 8.66011 9.11723 8.88867 8.88867C9.11723 8.66011 9.42677 8.53125 9.75 8.53125ZM11 19.0938C10.826 19.0938 10.6592 19.1631 10.5361 19.2861C10.4131 19.4092 10.3438 19.576 10.3438 19.75C10.3438 19.924 10.4131 20.0908 10.5361 20.2139C10.6592 20.3369 10.826 20.4062 11 20.4062H21C21.174 20.4062 21.3408 20.3369 21.4639 20.2139C21.5869 20.0908 21.6562 19.924 21.6562 19.75C21.6562 19.576 21.5869 19.4092 21.4639 19.2861C21.3408 19.1631 21.174 19.0938 21 19.0938H11ZM11 15.3438C10.826 15.3438 10.6592 15.4131 10.5361 15.5361C10.4131 15.6592 10.3438 15.826 10.3438 16C10.3438 16.174 10.4131 16.3408 10.5361 16.4639C10.6592 16.5869 10.826 16.6562 11 16.6562H21C21.174 16.6562 21.3408 16.5869 21.4639 16.4639C21.5869 16.3408 21.6562 16.174 21.6562 16C21.6562 15.826 21.5869 15.6592 21.4639 15.5361C21.3408 15.4131 21.174 15.3438 21 15.3438H11ZM11 11.5938C10.826 11.5938 10.6592 11.6631 10.5361 11.7861C10.4131 11.9092 10.3438 12.076 10.3438 12.25C10.3438 12.424 10.4131 12.5908 10.5361 12.7139C10.6592 12.8369 10.826 12.9062 11 12.9062H21C21.174 12.9062 21.3408 12.8369 21.4639 12.7139C21.5869 12.5908 21.6562 12.424 21.6562 12.25C21.6562 12.076 21.5869 11.9092 21.4639 11.7861C21.3408 11.6631 21.174 11.5938 21 11.5938H11Z" fill="#4B4DED" stroke="#4B4DED" stroke-width="0.0625"/>
</svg>
