<svg width="16" height="16" viewBox="0 0 16 16" fill="none" xmlns="http://www.w3.org/2000/svg">
<path d="M12.1505 3.484L10.4705 1.804C10.3214 1.65435 10.1441 1.53571 9.94891 1.45492C9.7537 1.37414 9.54443 1.33281 9.33317 1.33333H3.99984C3.64622 1.33333 3.30708 1.47381 3.05703 1.72386C2.80698 1.97391 2.6665 2.31304 2.6665 2.66667V13.3333C2.6665 13.687 2.80698 14.0261 3.05703 14.2761C3.30708 14.5262 3.64622 14.6667 3.99984 14.6667H11.9998C12.3535 14.6667 12.6926 14.5262 12.9426 14.2761C13.1927 14.0261 13.3332 13.687 13.3332 13.3333V13.0993" stroke="#4B4DED" stroke-linecap="round" stroke-linejoin="round"/>
<path d="M14.2521 8.41733C14.5177 8.15176 14.6669 7.79157 14.6669 7.416C14.6669 7.04043 14.5177 6.68024 14.2521 6.41467C13.9866 6.1491 13.6264 5.9999 13.2508 5.9999C12.8752 5.9999 12.5151 6.1491 12.2495 6.41467L9.57615 9.08933C9.41765 9.24775 9.30163 9.44356 9.23881 9.65867L8.68081 11.572C8.66408 11.6294 8.66308 11.6902 8.67791 11.7481C8.69274 11.8059 8.72286 11.8588 8.76511 11.901C8.80737 11.9433 8.8602 11.9734 8.91809 11.9882C8.97597 12.0031 9.03678 12.0021 9.09415 11.9853L11.0075 11.4273C11.2226 11.3645 11.4184 11.2485 11.5768 11.09L14.2521 8.41733Z" stroke="#4B4DED" stroke-linecap="round" stroke-linejoin="round"/>
<path d="M5.3335 12H6.00016" stroke="#4B4DED" stroke-linecap="round" stroke-linejoin="round"/>
</svg>
