<svg width="12" height="15" viewBox="0 0 12 15" fill="none" xmlns="http://www.w3.org/2000/svg">
<path d="M0.5 0.5H7.83333L11.1667 3.83333V13.8333H0.5V0.5Z" stroke="#5C5C77" stroke-linecap="square"/>
<path d="M9.16667 11.8333C9.16667 11.3029 8.95595 10.7942 8.58088 10.4191C8.20581 10.044 7.6971 9.83333 7.16667 9.83333H4.5C3.96957 9.83333 3.46086 10.044 3.08579 10.4191C2.71071 10.7942 2.5 11.3029 2.5 11.8333M7.5 6.16667C7.5 6.60869 7.3244 7.03262 7.01184 7.34518C6.69928 7.65774 6.27536 7.83333 5.83333 7.83333C5.39131 7.83333 4.96738 7.65774 4.65482 7.34518C4.34226 7.03262 4.16667 6.60869 4.16667 6.16667C4.16667 5.72464 4.34226 5.30072 4.65482 4.98816C4.96738 4.67559 5.39131 4.5 5.83333 4.5C6.27536 4.5 6.69928 4.67559 7.01184 4.98816C7.3244 5.30072 7.5 5.72464 7.5 6.16667Z" stroke="#5C5C77" stroke-linecap="square"/>
</svg>
