<svg width="16" height="16" viewBox="0 0 16 16" fill="none" xmlns="http://www.w3.org/2000/svg">
<path d="M6.24467 1.5H7.66667C7.79927 1.5 7.92645 1.55268 8.02022 1.64645C8.11399 1.74021 8.16667 1.86739 8.16667 2C8.16667 2.13261 8.11399 2.25979 8.02022 2.35355C7.92645 2.44732 7.79927 2.5 7.66667 2.5H6.26667C5.512 2.5 4.97533 2.5 4.556 2.53467C4.14267 2.568 3.886 2.63267 3.68267 2.736C3.27509 2.94371 2.94371 3.27509 2.736 3.68267C2.63267 3.886 2.56867 4.14267 2.53467 4.556C2.50067 4.976 2.5 5.512 2.5 6.26667V9.73333C2.5 10.4887 2.5 11.0247 2.53467 11.444C2.568 11.8573 2.63267 12.114 2.736 12.3173C2.94371 12.7249 3.27509 13.0563 3.68267 13.264C3.886 13.3673 4.14267 13.4313 4.556 13.4653C4.976 13.4993 5.512 13.5 6.26667 13.5H9.73333C10.4887 13.5 11.0247 13.5 11.444 13.4653C11.8573 13.432 12.114 13.3673 12.3173 13.264C12.7249 13.0563 13.0563 12.7249 13.264 12.3173C13.3673 12.114 13.4313 11.8573 13.4653 11.444C13.4993 11.024 13.5 10.488 13.5 9.73333V8.33333C13.5 8.20073 13.5527 8.07355 13.6464 7.97978C13.7402 7.88601 13.8674 7.83333 14 7.83333C14.1326 7.83333 14.2598 7.88601 14.3536 7.97978C14.4473 8.07355 14.5 8.20073 14.5 8.33333V9.75533C14.5 10.4833 14.5 11.0607 14.462 11.5253C14.4233 12.0013 14.342 12.4033 14.1553 12.7713C13.8516 13.367 13.3671 13.8512 12.7713 14.1547C12.4033 14.342 12.0013 14.4233 11.5253 14.462C11.0607 14.5 10.4833 14.5 9.75533 14.5H6.24467C5.51667 14.5 4.93933 14.5 4.47467 14.462C3.99867 14.4233 3.59667 14.342 3.22933 14.1553C2.63343 13.8517 2.14894 13.3672 1.84533 12.7713C1.658 12.4033 1.57667 12.0013 1.538 11.5253C1.5 11.0607 1.5 10.4833 1.5 9.75533V6.24467C1.5 5.51667 1.5 4.93933 1.538 4.47467C1.57667 3.99867 1.658 3.59667 1.84467 3.22933C2.14845 2.63332 2.63318 2.14883 3.22933 1.84533C3.596 1.658 3.99867 1.57667 4.47467 1.538C4.93933 1.5 5.51667 1.5 6.24467 1.5ZM9.83333 3.83333C9.83333 3.52692 9.89369 3.2235 10.0109 2.94041C10.1282 2.65731 10.3001 2.40009 10.5168 2.18342C10.7334 1.96675 10.9906 1.79488 11.2737 1.67761C11.5568 1.56035 11.8602 1.5 12.1667 1.5C12.4731 1.5 12.7765 1.56035 13.0596 1.67761C13.3427 1.79488 13.5999 1.96675 13.8166 2.18342C14.0333 2.40009 14.2051 2.65731 14.3224 2.94041C14.4396 3.2235 14.5 3.52692 14.5 3.83333C14.5 4.45217 14.2542 5.04566 13.8166 5.48325C13.379 5.92083 12.7855 6.16667 12.1667 6.16667C11.5478 6.16667 10.9543 5.92083 10.5168 5.48325C10.0792 5.04566 9.83333 4.45217 9.83333 3.83333Z" fill="#5C5C77"/>
</svg>
