<svg width="24" height="24" viewBox="0 0 24 24" fill="none" xmlns="http://www.w3.org/2000/svg">
<path d="M6 18C6 17.333 5.105 16 4 16C3.46957 16 2.96086 16.2107 2.58579 16.5858C2.21071 16.9609 2 17.4696 2 18C2 18.5304 2.21071 19.0391 2.58579 19.4142C2.96086 19.7893 3.46957 20 4 20C5.105 20 6 18.667 6 18ZM6 18C6 18.5 6.895 20 8 20C8.53043 20 9.03914 19.7893 9.41421 19.4142C9.78929 19.0391 10 18.5304 10 18C10 17.4696 9.78929 16.9609 9.41421 16.5858C9.03914 16.2107 8.53043 16 8 16C6.895 16 6 17.5 6 18ZM16 14C16 14.3978 16.158 14.7794 16.4393 15.0607C16.7206 15.342 17.1022 15.5 17.5 15.5C17.8978 15.5 18.2794 15.342 18.5607 15.0607C18.842 14.7794 19 14.3978 19 14C19 13.6022 18.842 13.2206 18.5607 12.9393C18.2794 12.658 17.8978 12.5 17.5 12.5C17.1022 12.5 16.7206 12.658 16.4393 12.9393C16.158 13.2206 16 13.6022 16 14Z" stroke="#4B4DED" stroke-width="1.5"/>
<path d="M13 20H16C18.828 20 20.243 20 21.121 19.121C22 18.243 22 16.828 22 14V13C22 10.172 22 8.757 21.121 7.879C20.48 7.237 19.553 7.064 18 7.017M18 7.017C17.425 7 16.764 7 16 7H10M18 7.017C18 6.069 18 5.595 17.843 5.222C17.6403 4.74179 17.2582 4.35966 16.778 4.157C16.405 4 15.93 4 14.983 4H10C6.229 4 4.343 4 3.172 5.172C2.001 6.344 2 7.229 2 11V13" stroke="#4B4DED" stroke-width="1.5" stroke-linecap="round"/>
</svg>
