<svg width="11" height="14" viewBox="0 0 11 14" fill="none" xmlns="http://www.w3.org/2000/svg">
<path d="M0 6.66667C0 6.84348 0.070238 7.01305 0.195262 7.13807C0.320287 7.26309 0.489856 7.33333 0.666667 7.33333H5.72667L4.19333 8.86C4.13085 8.92198 4.08125 8.99571 4.04741 9.07695C4.01356 9.15819 3.99613 9.24533 3.99613 9.33333C3.99613 9.42134 4.01356 9.50848 4.04741 9.58972C4.08125 9.67096 4.13085 9.74469 4.19333 9.80667C4.25531 9.86915 4.32904 9.91875 4.41028 9.95259C4.49152 9.98644 4.57866 10.0039 4.66667 10.0039C4.75467 10.0039 4.84181 9.98644 4.92305 9.95259C5.00429 9.91875 5.07802 9.86915 5.14 9.80667L7.80667 7.14C7.86736 7.0766 7.91494 7.00183 7.94667 6.92C8.01334 6.75769 8.01334 6.57564 7.94667 6.41333C7.91494 6.3315 7.86736 6.25674 7.80667 6.19333L5.14 3.52667C5.07784 3.46451 5.00405 3.4152 4.92283 3.38156C4.84162 3.34792 4.75457 3.33061 4.66667 3.33061C4.57876 3.33061 4.49171 3.34792 4.4105 3.38156C4.32929 3.4152 4.25549 3.46451 4.19333 3.52667C4.13117 3.58883 4.08187 3.66262 4.04823 3.74383C4.01459 3.82505 3.99727 3.91209 3.99727 4C3.99727 4.08791 4.01459 4.17495 4.04823 4.25617C4.08187 4.33738 4.13117 4.41117 4.19333 4.47333L5.72667 6H0.666667C0.489856 6 0.320287 6.07024 0.195262 6.19526C0.070238 6.32029 0 6.48986 0 6.66667ZM8.66667 0H2C1.46957 0 0.960859 0.210714 0.585786 0.585786C0.210714 0.960859 0 1.46957 0 2V4C0 4.17681 0.070238 4.34638 0.195262 4.4714C0.320287 4.59643 0.489856 4.66667 0.666667 4.66667C0.843478 4.66667 1.01305 4.59643 1.13807 4.4714C1.2631 4.34638 1.33333 4.17681 1.33333 4V2C1.33333 1.82319 1.40357 1.65362 1.5286 1.5286C1.65362 1.40357 1.82319 1.33333 2 1.33333H8.66667C8.84348 1.33333 9.01305 1.40357 9.13807 1.5286C9.2631 1.65362 9.33333 1.82319 9.33333 2V11.3333C9.33333 11.5101 9.2631 11.6797 9.13807 11.8047C9.01305 11.9298 8.84348 12 8.66667 12H2C1.82319 12 1.65362 11.9298 1.5286 11.8047C1.40357 11.6797 1.33333 11.5101 1.33333 11.3333V9.33333C1.33333 9.15652 1.2631 8.98695 1.13807 8.86193C1.01305 8.7369 0.843478 8.66667 0.666667 8.66667C0.489856 8.66667 0.320287 8.7369 0.195262 8.86193C0.070238 8.98695 0 9.15652 0 9.33333V11.3333C0 11.8638 0.210714 12.3725 0.585786 12.7475C0.960859 13.1226 1.46957 13.3333 2 13.3333H8.66667C9.1971 13.3333 9.70581 13.1226 10.0809 12.7475C10.456 12.3725 10.6667 11.8638 10.6667 11.3333V2C10.6667 1.46957 10.456 0.960859 10.0809 0.585786C9.70581 0.210714 9.1971 0 8.66667 0Z" fill="#DD2C2F"/>
</svg>
