<svg width="9" height="11" viewBox="0 0 9 11" fill="none" xmlns="http://www.w3.org/2000/svg">
<path fill-rule="evenodd" clip-rule="evenodd" d="M4.37503 0C3.74514 0 3.14105 0.250222 2.69565 0.695621C2.25025 1.14102 2.00003 1.74511 2.00003 2.375C2.00003 3.00489 2.25025 3.60898 2.69565 4.05438C3.14105 4.49978 3.74514 4.75 4.37503 4.75C5.00492 4.75 5.60901 4.49978 6.05441 4.05438C6.49981 3.60898 6.75003 3.00489 6.75003 2.375C6.75003 1.74511 6.49981 1.14102 6.05441 0.695621C5.60901 0.250222 5.00492 0 4.37503 0ZM2.75003 2.375C2.75003 1.94402 2.92123 1.5307 3.22598 1.22595C3.53073 0.921205 3.94405 0.75 4.37503 0.75C4.80601 0.75 5.21933 0.921205 5.52408 1.22595C5.82882 1.5307 6.00003 1.94402 6.00003 2.375C6.00003 2.80598 5.82882 3.2193 5.52408 3.52405C5.21933 3.82879 4.80601 4 4.37503 4C3.94405 4 3.53073 3.82879 3.22598 3.52405C2.92123 3.2193 2.75003 2.80598 2.75003 2.375ZM4.37503 5.5C3.21853 5.5 2.15253 5.763 1.36303 6.207C0.585028 6.645 2.7951e-05 7.308 2.7951e-05 8.125V8.176C-0.000472049 8.757 -0.000972092 9.486 0.638528 10.007C0.953028 10.263 1.39353 10.4455 1.98853 10.5655C2.58453 10.6865 3.36203 10.75 4.37503 10.75C5.38803 10.75 6.16503 10.6865 6.76203 10.5655C7.35703 10.4455 7.79703 10.263 8.11203 10.007C8.75153 9.486 8.75053 8.757 8.75003 8.176V8.125C8.75003 7.308 8.16503 6.645 7.38753 6.207C6.59753 5.763 5.53203 5.5 4.37503 5.5ZM0.750028 8.125C0.750028 7.6995 1.06103 7.2375 1.73053 6.861C2.38853 6.491 3.32253 6.25 4.37553 6.25C5.42753 6.25 6.36153 6.491 7.01953 6.861C7.68953 7.2375 8.00003 7.6995 8.00003 8.125C8.00003 8.779 7.98003 9.147 7.63803 9.425C7.45303 9.576 7.14303 9.7235 6.61303 9.8305C6.08453 9.9375 5.36203 10 4.37503 10C3.38803 10 2.66503 9.9375 2.13703 9.8305C1.60703 9.7235 1.29703 9.576 1.11203 9.4255C0.770028 9.147 0.750028 8.779 0.750028 8.125Z" fill="#5C5C77"/>
</svg>
