<svg width="14" height="10" viewBox="0 0 14 10" fill="none" xmlns="http://www.w3.org/2000/svg">
<path d="M10.1667 2.66667L9.932 2.67667C9.38267 1.09333 7.724 0 6 0C3.794 0 1.83333 1.79333 1.83333 4V4.084C1.16667 4.38067 0 5.42667 0 6.66733C0 8.138 1.36267 9.334 2.83333 9.334H10.1667C12.0047 9.334 13.5 7.838 13.5 6.00067C13.5 4.16333 12.0047 2.66667 10.1667 2.66667ZM10.1667 8.00067H7.16667V5.47133L8.59733 6.902C8.6283 6.93304 8.66508 6.95767 8.70558 6.97447C8.74607 6.99128 8.78949 6.99993 8.83333 6.99993C8.87718 6.99993 8.92059 6.99128 8.96109 6.97447C9.00159 6.95767 9.03837 6.93304 9.06933 6.902C9.13182 6.83949 9.16693 6.75472 9.16693 6.66633C9.16693 6.57795 9.13182 6.49318 9.06933 6.43067L7.07067 4.43067L6.96133 4.35933C6.92086 4.34255 6.87748 4.33392 6.83367 4.33392C6.78985 4.33392 6.74647 4.34255 6.706 4.35933L6.598 4.43067L4.598 6.43067C4.53551 6.49318 4.5004 6.57795 4.5004 6.66633C4.5004 6.75472 4.53551 6.83949 4.598 6.902C4.66088 6.96405 4.74566 6.99884 4.834 6.99884C4.92234 6.99884 5.00712 6.96405 5.07 6.902L6.5 5.47133V8.00067H2.83333C2.09733 8.00067 1.5 7.40333 1.5 6.66733C1.5 5.93133 2.09733 5.334 2.772 5.33067L3.72 5.34067L3.55467 4.54C3.47509 4.15225 3.48273 3.75166 3.57706 3.36724C3.67138 2.98281 3.85002 2.62418 4.10004 2.3173C4.35006 2.01043 4.66519 1.763 5.02263 1.59293C5.38006 1.42286 5.77084 1.33442 6.16667 1.334C6.79604 1.33356 7.40507 1.55685 7.885 1.964C8.36493 2.37115 8.68451 2.93564 8.78667 3.55667L8.91133 4.29133L9.62667 4.08733C9.83467 4.028 10.006 4.00067 10.168 4.00067C11.27 4.00067 12.168 4.898 12.168 6.00067C12.168 7.10333 11.2693 8.00067 10.1667 8.00067Z" fill="#5C5C77"/>
</svg>
