<svg width="11" height="6" viewBox="0 0 11 6" fill="none" xmlns="http://www.w3.org/2000/svg">
<path d="M0.846 4.9595H9.846C9.917 4.9595 9.97633 4.9835 10.024 5.0315C10.0717 5.0795 10.0957 5.139 10.096 5.21C10.0963 5.281 10.0723 5.34033 10.024 5.388C9.97567 5.43567 9.91633 5.4595 9.846 5.4595H0.846C0.775 5.4595 0.715667 5.4355 0.668 5.3875C0.620333 5.3395 0.596333 5.28 0.596 5.209C0.595667 5.138 0.619667 5.07867 0.668 5.031C0.716333 4.98333 0.775667 4.9595 0.846 4.9595ZM1.346 1.6265L0.974 2.2825C0.944333 2.33683 0.900167 2.37133 0.8415 2.386C0.782167 2.401 0.7255 2.39367 0.6715 2.364C0.617833 2.334 0.583667 2.2895 0.569 2.2305C0.554333 2.17083 0.562333 2.1145 0.593 2.0615L0.965 1.4055H0.221C0.157 1.4055 0.104167 1.38467 0.0625 1.343C0.0208333 1.30133 0 1.24867 0 1.185C0 1.12133 0.0208333 1.0685 0.0625 1.0265C0.104167 0.9845 0.157 0.9635 0.221 0.9635H0.9655L0.593 0.3325C0.562333 0.279167 0.554333 0.222833 0.569 0.1635C0.583667 0.104167 0.618 0.0596665 0.672 0.0299999C0.726 0.000333186 0.7825 -0.00699998 0.8415 0.00800002C0.9005 0.023 0.944667 0.0574999 0.974 0.1115L1.346 0.742L1.718 0.1115C1.74767 0.0571666 1.792 0.0225001 1.851 0.00750005C1.91 -0.00749995 1.96633 -1.47149e-07 2.02 0.0299999C2.07367 0.0599999 2.108 0.1045 2.123 0.1635C2.138 0.2225 2.13 0.278833 2.099 0.3325L1.726 0.9635H2.471C2.535 0.9635 2.58783 0.984333 2.6295 1.026C2.67117 1.06767 2.692 1.12033 2.692 1.184C2.692 1.24767 2.67117 1.3005 2.6295 1.3425C2.58783 1.3845 2.535 1.4055 2.471 1.4055H1.7265L2.099 2.0615C2.12967 2.11483 2.13767 2.17117 2.123 2.2305C2.10833 2.28983 2.074 2.33433 2.02 2.364C1.96633 2.39367 1.91 2.401 1.851 2.386C1.792 2.37133 1.74767 2.33683 1.718 2.2825L1.346 1.6265ZM5.346 1.6265L4.974 2.2825C4.94433 2.33683 4.9 2.37133 4.841 2.386C4.782 2.401 4.72567 2.39367 4.672 2.364C4.618 2.334 4.58367 2.2895 4.569 2.2305C4.55433 2.17083 4.56233 2.1145 4.593 2.0615L4.965 1.4055H4.221C4.157 1.4055 4.10417 1.38467 4.0625 1.343C4.02083 1.30133 4 1.24867 4 1.185C4 1.12133 4.02083 1.0685 4.0625 1.0265C4.10417 0.9845 4.157 0.9635 4.221 0.9635H4.9655L4.593 0.3325C4.56233 0.279167 4.55433 0.222833 4.569 0.1635C4.58367 0.104167 4.618 0.0596665 4.672 0.0299999C4.726 0.000333186 4.7825 -0.00699998 4.8415 0.00800002C4.9005 0.023 4.94467 0.0574999 4.974 0.1115L5.346 0.742L5.718 0.1115C5.74767 0.0571666 5.792 0.0225001 5.851 0.00750005C5.91 -0.00749995 5.96633 -1.47149e-07 6.02 0.0299999C6.074 0.0599999 6.10833 0.1045 6.123 0.1635C6.13767 0.2225 6.12967 0.278833 6.099 0.3325L5.727 0.9635H6.471C6.535 0.9635 6.58783 0.984333 6.6295 1.026C6.67117 1.06767 6.692 1.12033 6.692 1.184C6.692 1.24767 6.67117 1.3005 6.6295 1.3425C6.58783 1.3845 6.535 1.4055 6.471 1.4055H5.7265L6.099 2.0615C6.12967 2.11483 6.13767 2.17117 6.123 2.2305C6.10833 2.28983 6.074 2.33433 6.02 2.364C5.966 2.39367 5.9095 2.401 5.8505 2.386C5.7915 2.371 5.74733 2.3365 5.718 2.2825L5.346 1.6265ZM9.346 1.6265L8.974 2.2825C8.94433 2.33683 8.9 2.37133 8.841 2.386C8.782 2.401 8.72567 2.39367 8.672 2.364C8.618 2.334 8.58367 2.2895 8.569 2.2305C8.55433 2.17083 8.56233 2.1145 8.593 2.0615L8.965 1.4055H8.221C8.157 1.4055 8.10417 1.38467 8.0625 1.343C8.02083 1.30133 8 1.24867 8 1.185C8 1.12133 8.02083 1.0685 8.0625 1.0265C8.10417 0.9845 8.157 0.9635 8.221 0.9635H8.9655L8.593 0.3325C8.56233 0.279167 8.55433 0.222833 8.569 0.1635C8.58367 0.104167 8.618 0.0596665 8.672 0.0299999C8.726 0.000333186 8.78233 -0.00699998 8.841 0.00800002C8.89967 0.023 8.944 0.0574999 8.974 0.1115L9.346 0.742L9.718 0.1115C9.74767 0.0571666 9.792 0.0225001 9.851 0.00750005C9.91 -0.00749995 9.96633 -1.47149e-07 10.02 0.0299999C10.0737 0.0599999 10.108 0.1045 10.123 0.1635C10.138 0.2225 10.13 0.278833 10.099 0.3325L9.727 0.9635H10.471C10.535 0.9635 10.5878 0.984333 10.6295 1.026C10.6712 1.06767 10.692 1.12033 10.692 1.184C10.692 1.24767 10.6712 1.3005 10.6295 1.3425C10.5878 1.3845 10.535 1.4055 10.471 1.4055H9.7265L10.099 2.0615C10.1297 2.11483 10.1377 2.17117 10.123 2.2305C10.1083 2.28983 10.074 2.33433 10.02 2.364C9.966 2.39367 9.90967 2.401 9.851 2.386C9.79233 2.371 9.748 2.3365 9.718 2.2825L9.346 1.6265Z" fill="#5C5C77"/>
</svg>
