<svg width="16" height="16" viewBox="0 0 16 16" fill="none" xmlns="http://www.w3.org/2000/svg">
<path fill-rule="evenodd" clip-rule="evenodd" d="M13.3333 2.6665H2.66663V3.6665H13.3333V2.6665ZM12 8.6665H9.99996C9.26663 8.6665 8.66663 9.2665 8.66663 9.99984V11.9998C8.66663 12.7332 9.26663 13.3332 9.99996 13.3332H12C12.7333 13.3332 13.3333 12.7332 13.3333 11.9998V9.99984C13.3333 9.2665 12.7333 8.6665 12 8.6665ZM12.3333 11.9998C12.3333 12.1998 12.2 12.3332 12 12.3332H9.99996C9.79996 12.3332 9.66663 12.1998 9.66663 11.9998V9.99984C9.66663 9.79984 9.79996 9.6665 9.99996 9.6665H12C12.2 9.6665 12.3333 9.79984 12.3333 9.99984V11.9998ZM2.66663 6.33317H8.66663V5.33317H2.66663V6.33317ZM5.99996 8.6665H3.99996C3.26663 8.6665 2.66663 9.2665 2.66663 9.99984V11.9998C2.66663 12.7332 3.26663 13.3332 3.99996 13.3332H5.99996C6.73329 13.3332 7.33329 12.7332 7.33329 11.9998V9.99984C7.33329 9.2665 6.73329 8.6665 5.99996 8.6665ZM6.33329 11.9998C6.33329 12.1998 6.19996 12.3332 5.99996 12.3332H3.99996C3.79996 12.3332 3.66663 12.1998 3.66663 11.9998V9.99984C3.66663 9.79984 3.79996 9.6665 3.99996 9.6665H5.99996C6.19996 9.6665 6.33329 9.79984 6.33329 9.99984V11.9998Z" fill="#5C5C77"/>
</svg>
